# xmcd CD database file
#
# Track frame offsets:
#	150
#	17963
#	36297
#	54110
#
# Disc length: 965 seconds
#
# Revision: 4
# Processed by: cddbd v1.5.2PL0 Copyright (c) Steve Scherf et al.
# Submitted via: CDex 1.70beta2
#
DISCID=2903c304
DTITLE=Doll☆Elements - ミラクル☆エレメンツ
DYEAR=2012
DGENRE=JPop
TTITLE0=ミラクル☆エレメンツ
TTITLE1=Dolly Kiss
TTITLE2=ミラクル☆エレメンツ (Instrumental)
TTITLE3=Dolly Kiss (Instrumental)
EXTD=YEAR: 2012
EXTT0=
EXTT1=
EXTT2=
EXTT3=
PLAYORDER=
